<svg width="1400" height="820" viewBox="0 0 1400 820" fill="none" xmlns="http://www.w3.org/2000/svg">
  <rect width="1400" height="820" rx="32" fill="#F6F5EE"/>
  <rect x="28" y="28" width="1344" height="764" rx="28" fill="#FFFDF9" stroke="#E7E5E4" stroke-width="2"/>
  <rect x="60" y="54" width="1280" height="72" rx="24" fill="#FFFFFF" stroke="#E5E7EB" stroke-width="2"/>
  <rect x="680" y="64" width="180" height="52" rx="18" fill="#0EA5E9"/>
  <text x="700" y="98" font-family="Arial, sans-serif" font-size="28" font-weight="700" fill="#FFFFFF">Modules</text>
  <text x="110" y="98" font-family="Arial, sans-serif" font-size="24" font-weight="600" fill="#64748B">Overview</text>
  <text x="305" y="98" font-family="Arial, sans-serif" font-size="24" font-weight="600" fill="#64748B">Process</text>
  <text x="920" y="98" font-family="Arial, sans-serif" font-size="24" font-weight="600" fill="#64748B">Trends</text>
  <text x="1085" y="98" font-family="Arial, sans-serif" font-size="24" font-weight="600" fill="#64748B">Calibration</text>
  <rect x="60" y="154" width="870" height="610" rx="28" fill="#FFFDFB" stroke="#E5E7EB" stroke-width="2"/>
  <rect x="956" y="154" width="384" height="610" rx="28" fill="#FFFDFB" stroke="#E5E7EB" stroke-width="2"/>
  <text x="90" y="205" font-family="Arial, sans-serif" font-size="24" font-weight="700" fill="#0F172A">Integrated Module Console</text>
  <text x="90" y="235" font-family="Arial, sans-serif" font-size="16" fill="#64748B">Syringe, MFCs, furnace, detector, and cleanup train in one operator surface.</text>
  <rect x="90" y="268" width="390" height="442" rx="24" fill="#FFFCF7" stroke="#FCD34D" stroke-width="2"/>
  <text x="118" y="308" font-family="Arial, sans-serif" font-size="26" font-weight="700" fill="#92400E">Syringe / Injector</text>
  <rect x="118" y="332" width="330" height="130" rx="20" fill="#FFFFFF" stroke="#E5E7EB" stroke-width="2"/>
  <text x="135" y="362" font-family="Arial, sans-serif" font-size="14" fill="#94A3B8">Injection assembly</text>
  <rect x="140" y="390" width="48" height="16" rx="8" fill="#94A3B8"/>
  <rect x="188" y="372" width="210" height="54" rx="18" fill="#EFF6FF" stroke="#BAE6FD" stroke-width="2"/>
  <rect x="188" y="372" width="128" height="54" rx="18" fill="url(#gradSample)"/>
  <rect x="302" y="372" width="18" height="54" rx="8" fill="#FFFFFF" stroke="#475569" stroke-width="2"/>
  <rect x="398" y="390" width="24" height="16" rx="8" fill="#CBD5E1"/>
  <rect x="118" y="486" width="150" height="58" rx="18" fill="#F59E0B"/>
  <rect x="282" y="486" width="150" height="58" rx="18" fill="#FFFFFF" stroke="#CBD5E1" stroke-width="2"/>
  <text x="154" y="523" font-family="Arial, sans-serif" font-size="18" font-weight="700" fill="#FFFFFF">Queue Shot</text>
  <text x="318" y="523" font-family="Arial, sans-serif" font-size="18" font-weight="700" fill="#0F172A">Refill</text>
  <rect x="118" y="566" width="314" height="22" rx="11" fill="#E2E8F0"/>
  <rect x="118" y="566" width="220" height="22" rx="11" fill="#0EA5E9"/>
  <text x="118" y="620" font-family="Arial, sans-serif" font-size="17" fill="#334155">Stage: DETECTING</text>
  <text x="118" y="650" font-family="Arial, sans-serif" font-size="17" fill="#334155">At detector: 38.4 uL</text>
  <text x="118" y="680" font-family="Arial, sans-serif" font-size="17" fill="#334155">Reservoir: 2450 / 5000 uL</text>
  <rect x="505" y="268" width="395" height="207" rx="24" fill="#FFFFFF" stroke="#E5E7EB" stroke-width="2"/>
  <text x="532" y="308" font-family="Arial, sans-serif" font-size="26" font-weight="700" fill="#0F172A">Detector / PMT</text>
  <rect x="532" y="328" width="160" height="108" rx="18" fill="#0F172A"/>
  <text x="554" y="385" font-family="Arial, sans-serif" font-size="34" font-weight="700" fill="#6EE7B7">0.4213</text>
  <text x="556" y="410" font-family="Arial, sans-serif" font-size="14" fill="#CBD5E1">AU filtered</text>
  <text x="725" y="358" font-family="Arial, sans-serif" font-size="18" fill="#334155">Lamp intensity: 96.2%</text>
  <text x="725" y="390" font-family="Arial, sans-serif" font-size="18" fill="#334155">PMT gain: 18.4x</text>
  <text x="725" y="422" font-family="Arial, sans-serif" font-size="18" fill="#334155">Measured: 49.8 ppm</text>
  <rect x="505" y="502" width="395" height="208" rx="24" fill="#FFFFFF" stroke="#E5E7EB" stroke-width="2"/>
  <text x="532" y="542" font-family="Arial, sans-serif" font-size="26" font-weight="700" fill="#0F172A">Furnace / MFC Cluster</text>
  <text x="532" y="586" font-family="Arial, sans-serif" font-size="18" fill="#334155">Argon MFC, Oxygen MFC-A/B, furnace SP/PV, heater duty, and SSR state.</text>
  <rect x="532" y="610" width="160" height="60" rx="18" fill="#FFF7ED" stroke="#FDBA74" stroke-width="2"/>
  <rect x="710" y="610" width="160" height="60" rx="18" fill="#EFF6FF" stroke="#7DD3FC" stroke-width="2"/>
  <text x="560" y="648" font-family="Arial, sans-serif" font-size="20" font-weight="700" fill="#C2410C">879.2 degC</text>
  <text x="748" y="648" font-family="Arial, sans-serif" font-size="20" font-weight="700" fill="#0369A1">0.174 L/min</text>
  <text x="985" y="205" font-family="Arial, sans-serif" font-size="24" font-weight="700" fill="#0F172A">Detector Focus</text>
  <rect x="985" y="238" width="326" height="250" rx="24" fill="#FFFFFF" stroke="#E5E7EB" stroke-width="2"/>
  <polyline points="1014,430 1040,425 1068,420 1096,405 1124,370 1152,330 1180,286 1208,262 1236,278 1264,320 1292,360" fill="none" stroke="#10B981" stroke-width="5" stroke-linecap="round" stroke-linejoin="round"/>
  <polyline points="1014,438 1040,434 1068,428 1096,416 1124,382 1152,342 1180,300 1208,276 1236,292 1264,334 1292,372" fill="none" stroke="#0EA5E9" stroke-width="3" stroke-dasharray="10 8" stroke-linecap="round"/>
  <line x1="1052" y1="260" x2="1052" y2="450" stroke="#F59E0B" stroke-width="2.5" stroke-dasharray="6 6"/>
  <line x1="1210" y1="260" x2="1210" y2="450" stroke="#10B981" stroke-width="2.5" stroke-dasharray="6 6"/>
  <text x="1028" y="250" font-family="Arial, sans-serif" font-size="12" fill="#B45309">Inject</text>
  <text x="1188" y="250" font-family="Arial, sans-serif" font-size="12" fill="#047857">Detect</text>
  <rect x="985" y="515" width="326" height="176" rx="24" fill="#FFFFFF" stroke="#E5E7EB" stroke-width="2"/>
  <text x="1011" y="555" font-family="Arial, sans-serif" font-size="22" font-weight="700" fill="#0F172A">Calibration + Results</text>
  <text x="1011" y="592" font-family="Arial, sans-serif" font-size="17" fill="#334155">Linear fit, R², standards, recovery, pass/warn/fail, and result table.</text>
  <rect x="1011" y="620" width="92" height="38" rx="12" fill="#E0F2FE"/>
  <rect x="1118" y="620" width="92" height="38" rx="12" fill="#DCFCE7"/>
  <rect x="1225" y="620" width="66" height="38" rx="12" fill="#FEF3C7"/>
  <text x="1038" y="645" font-family="Arial, sans-serif" font-size="16" font-weight="700" fill="#0369A1">R² 0.999</text>
  <text x="1143" y="645" font-family="Arial, sans-serif" font-size="16" font-weight="700" fill="#166534">PASS</text>
  <text x="1242" y="645" font-family="Arial, sans-serif" font-size="16" font-weight="700" fill="#B45309">CSV</text>
  <defs>
    <linearGradient id="gradSample" x1="188" y1="399" x2="316" y2="399" gradientUnits="userSpaceOnUse">
      <stop stop-color="#FDE68A"/>
      <stop offset="1" stop-color="#7DD3FC"/>
    </linearGradient>
  </defs>
</svg>
